<svg width="256" height="256" viewBox="0 0 256 256" fill="none" xmlns="http://www.w3.org/2000/svg">
  <path
    d="M59.0281 82.4531H66.2469V110.789H83.3562V117H59.0281V82.4531ZM106.053 117.961C101.116 117.961 97.3422 116.617 94.7328 113.93C91.2328 110.633 89.4828 105.883 89.4828 99.6797C89.4828 93.3516 91.2328 88.6016 94.7328 85.4297C97.3422 82.7422 101.116 81.3984 106.053 81.3984C110.991 81.3984 114.764 82.7422 117.373 85.4297C120.858 88.6016 122.6 93.3516 122.6 99.6797C122.6 105.883 120.858 110.633 117.373 113.93C114.764 116.617 110.991 117.961 106.053 117.961ZM112.873 108.68C114.545 106.57 115.381 103.57 115.381 99.6797C115.381 95.8047 114.537 92.8125 112.85 90.7031C111.178 88.5781 108.912 87.5156 106.053 87.5156C103.194 87.5156 100.912 88.5703 99.2094 90.6797C97.5062 92.7891 96.6547 95.7891 96.6547 99.6797C96.6547 103.57 97.5062 106.57 99.2094 108.68C100.912 110.789 103.194 111.844 106.053 111.844C108.912 111.844 111.186 110.789 112.873 108.68ZM145.812 117.961C140.875 117.961 137.102 116.617 134.492 113.93C130.992 110.633 129.242 105.883 129.242 99.6797C129.242 93.3516 130.992 88.6016 134.492 85.4297C137.102 82.7422 140.875 81.3984 145.812 81.3984C150.75 81.3984 154.523 82.7422 157.133 85.4297C160.617 88.6016 162.359 93.3516 162.359 99.6797C162.359 105.883 160.617 110.633 157.133 113.93C154.523 116.617 150.75 117.961 145.812 117.961ZM152.633 108.68C154.305 106.57 155.141 103.57 155.141 99.6797C155.141 95.8047 154.297 92.8125 152.609 90.7031C150.938 88.5781 148.672 87.5156 145.812 87.5156C142.953 87.5156 140.672 88.5703 138.969 90.6797C137.266 92.7891 136.414 95.7891 136.414 99.6797C136.414 103.57 137.266 106.57 138.969 108.68C140.672 110.789 142.953 111.844 145.812 111.844C148.672 111.844 150.945 110.789 152.633 108.68ZM184.962 104.578H177.627V117H170.455V82.4531H185.502C188.97 82.4531 191.736 83.3438 193.798 85.125C195.861 86.9062 196.892 89.6641 196.892 93.3984C196.892 97.4766 195.861 100.359 193.798 102.047C191.736 103.734 188.791 104.578 184.962 104.578ZM188.337 97.3828C189.275 96.5547 189.744 95.2422 189.744 93.4453C189.744 91.6484 189.267 90.3672 188.314 89.6016C187.377 88.8359 186.056 88.4531 184.353 88.4531H177.627V98.625H184.353C186.056 98.625 187.384 98.2109 188.337 97.3828ZM19.0109 173H12.2844V138.453H22.7844L29.0656 165.617L35.3 138.453H45.6828V173H38.9563V149.633C38.9563 148.961 38.9641 148.023 38.9797 146.82C38.9953 145.602 39.0031 144.664 39.0031 144.008L32.4641 173H25.4563L18.9641 144.008C18.9641 144.664 18.9719 145.602 18.9875 146.82C19.0031 148.023 19.0109 148.961 19.0109 149.633V173ZM75.0125 165.898H62.2859L59.8953 173H52.3484L64.6766 138.453H72.8328L85.0672 173H77.2391L75.0125 165.898ZM72.9969 159.945L68.6844 146.352L64.2313 159.945H72.9969ZM106.545 160.578H99.2094V173H92.0375V138.453H107.084C110.553 138.453 113.319 139.344 115.381 141.125C117.444 142.906 118.475 145.664 118.475 149.398C118.475 153.477 117.444 156.359 115.381 158.047C113.319 159.734 110.373 160.578 106.545 160.578ZM109.92 153.383C110.858 152.555 111.327 151.242 111.327 149.445C111.327 147.648 110.85 146.367 109.897 145.602C108.959 144.836 107.639 144.453 105.936 144.453H99.2094V154.625H105.936C107.639 154.625 108.967 154.211 109.92 153.383ZM140.961 160.578H133.625V173H126.453V138.453H141.5C144.969 138.453 147.734 139.344 149.797 141.125C151.859 142.906 152.891 145.664 152.891 149.398C152.891 153.477 151.859 156.359 149.797 158.047C147.734 159.734 144.789 160.578 140.961 160.578ZM144.336 153.383C145.273 152.555 145.742 151.242 145.742 149.445C145.742 147.648 145.266 146.367 144.312 145.602C143.375 144.836 142.055 144.453 140.352 144.453H133.625V154.625H140.352C142.055 154.625 143.383 154.211 144.336 153.383ZM160.142 138.453H167.314V173H160.142V138.453ZM204.402 173H197.183L183.073 148.461V173H176.347V138.453H183.917L197.675 162.57V138.453H204.402V173ZM234.739 172.156C232.833 173.328 230.489 173.914 227.708 173.914C223.13 173.914 219.38 172.328 216.458 169.156C213.411 165.969 211.887 161.609 211.887 156.078C211.887 150.484 213.427 146 216.505 142.625C219.583 139.25 223.653 137.562 228.716 137.562C233.106 137.562 236.63 138.68 239.286 140.914C241.958 143.133 243.489 145.906 243.88 149.234H236.778C236.231 146.875 234.895 145.227 232.77 144.289C231.583 143.773 230.262 143.516 228.809 143.516C226.028 143.516 223.739 144.57 221.942 146.68C220.161 148.773 219.27 151.93 219.27 156.148C219.27 160.398 220.239 163.406 222.177 165.172C224.114 166.938 226.317 167.82 228.786 167.82C231.208 167.82 233.192 167.125 234.739 165.734C236.286 164.328 237.239 162.492 237.598 160.227H229.606V154.461H243.997V173H239.216L238.489 168.688C237.098 170.328 235.848 171.484 234.739 172.156Z"
    fill="black" />
</svg>